<mxfile host="app.diagrams.net" modified="2020-11-12T03:35:56.092Z" agent="5.0 (Windows NT 10.0; Win64; x64) AppleWebKit/537.36 (KHTML, like Gecko) Chrome/86.0.4240.193 Safari/537.36" etag="Wp5chtvIiHwG5r9_-iv3" version="13.9.6" type="github">
  <diagram id="zybD0hPAaKgmit9qpOA4" name="Page-1">
    <mxGraphModel dx="1102" dy="1750" grid="1" gridSize="10" guides="1" tooltips="1" connect="1" arrows="1" fold="1" page="1" pageScale="1" pageWidth="827" pageHeight="1169" math="0" shadow="0">
      <root>
        <mxCell id="0" />
        <mxCell id="1" parent="0" />
        <mxCell id="9gq6ShpLRroCOLwbR4I5-7" style="edgeStyle=orthogonalEdgeStyle;rounded=0;orthogonalLoop=1;jettySize=auto;html=1;exitX=0.5;exitY=1;exitDx=0;exitDy=0;entryX=0.5;entryY=0;entryDx=0;entryDy=0;" edge="1" parent="1" source="9gq6ShpLRroCOLwbR4I5-1" target="9gq6ShpLRroCOLwbR4I5-3">
          <mxGeometry relative="1" as="geometry" />
        </mxCell>
        <mxCell id="9gq6ShpLRroCOLwbR4I5-1" value="Inicio Main" style="rounded=0;whiteSpace=wrap;html=1;" vertex="1" parent="1">
          <mxGeometry x="130" y="-10" width="120" height="60" as="geometry" />
        </mxCell>
        <mxCell id="9gq6ShpLRroCOLwbR4I5-8" style="edgeStyle=orthogonalEdgeStyle;rounded=0;orthogonalLoop=1;jettySize=auto;html=1;exitX=1;exitY=0.5;exitDx=0;exitDy=0;entryX=0.5;entryY=0;entryDx=0;entryDy=0;" edge="1" parent="1" source="9gq6ShpLRroCOLwbR4I5-3" target="9gq6ShpLRroCOLwbR4I5-4">
          <mxGeometry relative="1" as="geometry" />
        </mxCell>
        <mxCell id="9gq6ShpLRroCOLwbR4I5-14" style="edgeStyle=orthogonalEdgeStyle;rounded=0;orthogonalLoop=1;jettySize=auto;html=1;exitX=0;exitY=0.5;exitDx=0;exitDy=0;" edge="1" parent="1" source="9gq6ShpLRroCOLwbR4I5-3" target="9gq6ShpLRroCOLwbR4I5-13">
          <mxGeometry relative="1" as="geometry" />
        </mxCell>
        <mxCell id="9gq6ShpLRroCOLwbR4I5-3" value="Si aumentar_1 == HIGH" style="rhombus;whiteSpace=wrap;html=1;" vertex="1" parent="1">
          <mxGeometry x="105" y="80" width="170" height="90" as="geometry" />
        </mxCell>
        <mxCell id="9gq6ShpLRroCOLwbR4I5-9" style="edgeStyle=orthogonalEdgeStyle;rounded=0;orthogonalLoop=1;jettySize=auto;html=1;exitX=1;exitY=0.5;exitDx=0;exitDy=0;" edge="1" parent="1" source="9gq6ShpLRroCOLwbR4I5-4" target="9gq6ShpLRroCOLwbR4I5-5">
          <mxGeometry relative="1" as="geometry" />
        </mxCell>
        <mxCell id="9gq6ShpLRroCOLwbR4I5-18" style="edgeStyle=orthogonalEdgeStyle;rounded=0;orthogonalLoop=1;jettySize=auto;html=1;exitX=0;exitY=0.5;exitDx=0;exitDy=0;entryX=0.5;entryY=0;entryDx=0;entryDy=0;" edge="1" parent="1" source="9gq6ShpLRroCOLwbR4I5-4" target="9gq6ShpLRroCOLwbR4I5-16">
          <mxGeometry relative="1" as="geometry" />
        </mxCell>
        <mxCell id="9gq6ShpLRroCOLwbR4I5-4" value="Si reducir_1 == HIGH" style="rhombus;whiteSpace=wrap;html=1;" vertex="1" parent="1">
          <mxGeometry x="220" y="150" width="170" height="90" as="geometry" />
        </mxCell>
        <mxCell id="9gq6ShpLRroCOLwbR4I5-11" style="edgeStyle=orthogonalEdgeStyle;rounded=0;orthogonalLoop=1;jettySize=auto;html=1;exitX=1;exitY=0.5;exitDx=0;exitDy=0;" edge="1" parent="1" source="9gq6ShpLRroCOLwbR4I5-5" target="9gq6ShpLRroCOLwbR4I5-6">
          <mxGeometry relative="1" as="geometry" />
        </mxCell>
        <mxCell id="9gq6ShpLRroCOLwbR4I5-19" style="edgeStyle=orthogonalEdgeStyle;rounded=0;orthogonalLoop=1;jettySize=auto;html=1;exitX=0;exitY=0.5;exitDx=0;exitDy=0;entryX=0.5;entryY=0;entryDx=0;entryDy=0;" edge="1" parent="1" source="9gq6ShpLRroCOLwbR4I5-5" target="9gq6ShpLRroCOLwbR4I5-17">
          <mxGeometry relative="1" as="geometry" />
        </mxCell>
        <mxCell id="9gq6ShpLRroCOLwbR4I5-5" value="Si aumentar_2 == HIGH" style="rhombus;whiteSpace=wrap;html=1;" vertex="1" parent="1">
          <mxGeometry x="340" y="230" width="170" height="90" as="geometry" />
        </mxCell>
        <mxCell id="9gq6ShpLRroCOLwbR4I5-20" style="edgeStyle=orthogonalEdgeStyle;rounded=0;orthogonalLoop=1;jettySize=auto;html=1;exitX=0;exitY=0.5;exitDx=0;exitDy=0;" edge="1" parent="1" source="9gq6ShpLRroCOLwbR4I5-6" target="9gq6ShpLRroCOLwbR4I5-12">
          <mxGeometry relative="1" as="geometry" />
        </mxCell>
        <mxCell id="9gq6ShpLRroCOLwbR4I5-27" style="edgeStyle=orthogonalEdgeStyle;rounded=0;orthogonalLoop=1;jettySize=auto;html=1;exitX=1;exitY=0.5;exitDx=0;exitDy=0;entryX=0.5;entryY=0;entryDx=0;entryDy=0;" edge="1" parent="1" source="9gq6ShpLRroCOLwbR4I5-6" target="9gq6ShpLRroCOLwbR4I5-33">
          <mxGeometry relative="1" as="geometry">
            <mxPoint x="650" y="440" as="targetPoint" />
          </mxGeometry>
        </mxCell>
        <mxCell id="9gq6ShpLRroCOLwbR4I5-6" value="Si aumentar_2 == HIGH" style="rhombus;whiteSpace=wrap;html=1;" vertex="1" parent="1">
          <mxGeometry x="450" y="310" width="170" height="90" as="geometry" />
        </mxCell>
        <mxCell id="9gq6ShpLRroCOLwbR4I5-28" style="edgeStyle=orthogonalEdgeStyle;rounded=0;orthogonalLoop=1;jettySize=auto;html=1;exitX=0.5;exitY=1;exitDx=0;exitDy=0;entryX=0;entryY=0.5;entryDx=0;entryDy=0;" edge="1" parent="1" source="9gq6ShpLRroCOLwbR4I5-12">
          <mxGeometry relative="1" as="geometry">
            <mxPoint x="590" y="480" as="targetPoint" />
            <Array as="points">
              <mxPoint x="400" y="480" />
            </Array>
          </mxGeometry>
        </mxCell>
        <mxCell id="9gq6ShpLRroCOLwbR4I5-12" value="Linea_2--" style="rounded=0;whiteSpace=wrap;html=1;" vertex="1" parent="1">
          <mxGeometry x="340" y="380" width="120" height="60" as="geometry" />
        </mxCell>
        <mxCell id="9gq6ShpLRroCOLwbR4I5-31" style="edgeStyle=orthogonalEdgeStyle;rounded=0;orthogonalLoop=1;jettySize=auto;html=1;exitX=0.5;exitY=1;exitDx=0;exitDy=0;" edge="1" parent="1" source="9gq6ShpLRroCOLwbR4I5-13">
          <mxGeometry relative="1" as="geometry">
            <mxPoint x="590" y="480" as="targetPoint" />
            <Array as="points">
              <mxPoint x="80" y="480" />
            </Array>
          </mxGeometry>
        </mxCell>
        <mxCell id="9gq6ShpLRroCOLwbR4I5-13" value="Linea_1++" style="rounded=0;whiteSpace=wrap;html=1;" vertex="1" parent="1">
          <mxGeometry x="20" y="165" width="120" height="60" as="geometry" />
        </mxCell>
        <mxCell id="9gq6ShpLRroCOLwbR4I5-30" style="edgeStyle=orthogonalEdgeStyle;rounded=0;orthogonalLoop=1;jettySize=auto;html=1;exitX=0.5;exitY=1;exitDx=0;exitDy=0;" edge="1" parent="1" source="9gq6ShpLRroCOLwbR4I5-16">
          <mxGeometry relative="1" as="geometry">
            <mxPoint x="600" y="480" as="targetPoint" />
            <Array as="points">
              <mxPoint x="200" y="480" />
            </Array>
          </mxGeometry>
        </mxCell>
        <mxCell id="9gq6ShpLRroCOLwbR4I5-16" value="Linea_1++" style="rounded=0;whiteSpace=wrap;html=1;" vertex="1" parent="1">
          <mxGeometry x="140" y="230" width="120" height="60" as="geometry" />
        </mxCell>
        <mxCell id="9gq6ShpLRroCOLwbR4I5-29" style="edgeStyle=orthogonalEdgeStyle;rounded=0;orthogonalLoop=1;jettySize=auto;html=1;exitX=0.5;exitY=1;exitDx=0;exitDy=0;" edge="1" parent="1" source="9gq6ShpLRroCOLwbR4I5-17">
          <mxGeometry relative="1" as="geometry">
            <mxPoint x="600" y="480" as="targetPoint" />
            <Array as="points">
              <mxPoint x="300" y="480" />
            </Array>
          </mxGeometry>
        </mxCell>
        <mxCell id="9gq6ShpLRroCOLwbR4I5-17" value="Linea_2++" style="rounded=0;whiteSpace=wrap;html=1;" vertex="1" parent="1">
          <mxGeometry x="240" y="300" width="120" height="60" as="geometry" />
        </mxCell>
        <mxCell id="9gq6ShpLRroCOLwbR4I5-38" style="edgeStyle=orthogonalEdgeStyle;rounded=0;orthogonalLoop=1;jettySize=auto;html=1;exitX=1;exitY=0.5;exitDx=0;exitDy=0;entryX=0.5;entryY=0;entryDx=0;entryDy=0;" edge="1" parent="1" source="9gq6ShpLRroCOLwbR4I5-21" target="9gq6ShpLRroCOLwbR4I5-22">
          <mxGeometry relative="1" as="geometry" />
        </mxCell>
        <mxCell id="9gq6ShpLRroCOLwbR4I5-45" style="edgeStyle=orthogonalEdgeStyle;rounded=0;orthogonalLoop=1;jettySize=auto;html=1;exitX=0;exitY=0.5;exitDx=0;exitDy=0;" edge="1" parent="1" source="9gq6ShpLRroCOLwbR4I5-21" target="9gq6ShpLRroCOLwbR4I5-44">
          <mxGeometry relative="1" as="geometry" />
        </mxCell>
        <mxCell id="9gq6ShpLRroCOLwbR4I5-21" value="Si sumatoria ==0" style="rhombus;whiteSpace=wrap;html=1;" vertex="1" parent="1">
          <mxGeometry x="120" y="630" width="170" height="90" as="geometry" />
        </mxCell>
        <mxCell id="9gq6ShpLRroCOLwbR4I5-40" style="edgeStyle=orthogonalEdgeStyle;rounded=0;orthogonalLoop=1;jettySize=auto;html=1;exitX=1;exitY=0.5;exitDx=0;exitDy=0;" edge="1" parent="1" source="9gq6ShpLRroCOLwbR4I5-22" target="9gq6ShpLRroCOLwbR4I5-23">
          <mxGeometry relative="1" as="geometry" />
        </mxCell>
        <mxCell id="9gq6ShpLRroCOLwbR4I5-50" style="edgeStyle=orthogonalEdgeStyle;rounded=0;orthogonalLoop=1;jettySize=auto;html=1;exitX=0;exitY=0.5;exitDx=0;exitDy=0;entryX=0.5;entryY=0;entryDx=0;entryDy=0;" edge="1" parent="1" source="9gq6ShpLRroCOLwbR4I5-22" target="9gq6ShpLRroCOLwbR4I5-46">
          <mxGeometry relative="1" as="geometry" />
        </mxCell>
        <mxCell id="9gq6ShpLRroCOLwbR4I5-22" value="Si sumatoria == 1" style="rhombus;whiteSpace=wrap;html=1;" vertex="1" parent="1">
          <mxGeometry x="235" y="700" width="170" height="90" as="geometry" />
        </mxCell>
        <mxCell id="9gq6ShpLRroCOLwbR4I5-41" style="edgeStyle=orthogonalEdgeStyle;rounded=0;orthogonalLoop=1;jettySize=auto;html=1;exitX=1;exitY=0.5;exitDx=0;exitDy=0;entryX=0.5;entryY=0;entryDx=0;entryDy=0;" edge="1" parent="1" source="9gq6ShpLRroCOLwbR4I5-23" target="9gq6ShpLRroCOLwbR4I5-24">
          <mxGeometry relative="1" as="geometry" />
        </mxCell>
        <mxCell id="9gq6ShpLRroCOLwbR4I5-57" style="edgeStyle=orthogonalEdgeStyle;rounded=0;orthogonalLoop=1;jettySize=auto;html=1;exitX=0;exitY=0.5;exitDx=0;exitDy=0;" edge="1" parent="1" source="9gq6ShpLRroCOLwbR4I5-23">
          <mxGeometry relative="1" as="geometry">
            <mxPoint x="330" y="870" as="targetPoint" />
          </mxGeometry>
        </mxCell>
        <mxCell id="9gq6ShpLRroCOLwbR4I5-23" value="Si sumatoria == 2" style="rhombus;whiteSpace=wrap;html=1;" vertex="1" parent="1">
          <mxGeometry x="355" y="780" width="170" height="90" as="geometry" />
        </mxCell>
        <mxCell id="9gq6ShpLRroCOLwbR4I5-43" style="edgeStyle=orthogonalEdgeStyle;rounded=0;orthogonalLoop=1;jettySize=auto;html=1;exitX=1;exitY=0.5;exitDx=0;exitDy=0;entryX=0.5;entryY=0;entryDx=0;entryDy=0;" edge="1" parent="1" source="9gq6ShpLRroCOLwbR4I5-24" target="9gq6ShpLRroCOLwbR4I5-42">
          <mxGeometry relative="1" as="geometry" />
        </mxCell>
        <mxCell id="9gq6ShpLRroCOLwbR4I5-54" style="edgeStyle=orthogonalEdgeStyle;rounded=0;orthogonalLoop=1;jettySize=auto;html=1;exitX=0;exitY=0.5;exitDx=0;exitDy=0;" edge="1" parent="1" source="9gq6ShpLRroCOLwbR4I5-24">
          <mxGeometry relative="1" as="geometry">
            <mxPoint x="450" y="940" as="targetPoint" />
          </mxGeometry>
        </mxCell>
        <mxCell id="9gq6ShpLRroCOLwbR4I5-24" value="Si sumatoria == 3" style="rhombus;whiteSpace=wrap;html=1;" vertex="1" parent="1">
          <mxGeometry x="465" y="860" width="170" height="90" as="geometry" />
        </mxCell>
        <mxCell id="9gq6ShpLRroCOLwbR4I5-32" value="Función &lt;br&gt;Abaco" style="ellipse;whiteSpace=wrap;html=1;" vertex="1" parent="1">
          <mxGeometry x="590" y="530" width="120" height="80" as="geometry" />
        </mxCell>
        <mxCell id="9gq6ShpLRroCOLwbR4I5-35" style="edgeStyle=orthogonalEdgeStyle;rounded=0;orthogonalLoop=1;jettySize=auto;html=1;exitX=0.5;exitY=1;exitDx=0;exitDy=0;entryX=0.5;entryY=0;entryDx=0;entryDy=0;" edge="1" parent="1" source="9gq6ShpLRroCOLwbR4I5-33" target="9gq6ShpLRroCOLwbR4I5-32">
          <mxGeometry relative="1" as="geometry" />
        </mxCell>
        <mxCell id="9gq6ShpLRroCOLwbR4I5-33" value="sumatoria = Linea1 + Linea 2" style="rounded=0;whiteSpace=wrap;html=1;" vertex="1" parent="1">
          <mxGeometry x="590" y="450" width="120" height="60" as="geometry" />
        </mxCell>
        <mxCell id="9gq6ShpLRroCOLwbR4I5-37" style="edgeStyle=orthogonalEdgeStyle;rounded=0;orthogonalLoop=1;jettySize=auto;html=1;exitX=0.5;exitY=1;exitDx=0;exitDy=0;entryX=0.5;entryY=0;entryDx=0;entryDy=0;" edge="1" parent="1" source="9gq6ShpLRroCOLwbR4I5-36" target="9gq6ShpLRroCOLwbR4I5-21">
          <mxGeometry relative="1" as="geometry" />
        </mxCell>
        <mxCell id="9gq6ShpLRroCOLwbR4I5-36" value="Función &lt;br&gt;Abaco" style="ellipse;whiteSpace=wrap;html=1;" vertex="1" parent="1">
          <mxGeometry x="145" y="530" width="120" height="80" as="geometry" />
        </mxCell>
        <mxCell id="9gq6ShpLRroCOLwbR4I5-55" style="edgeStyle=orthogonalEdgeStyle;rounded=0;orthogonalLoop=1;jettySize=auto;html=1;exitX=0;exitY=0.5;exitDx=0;exitDy=0;" edge="1" parent="1" source="9gq6ShpLRroCOLwbR4I5-42">
          <mxGeometry relative="1" as="geometry">
            <mxPoint x="570" y="1010" as="targetPoint" />
          </mxGeometry>
        </mxCell>
        <mxCell id="9gq6ShpLRroCOLwbR4I5-59" style="edgeStyle=orthogonalEdgeStyle;rounded=0;orthogonalLoop=1;jettySize=auto;html=1;exitX=1;exitY=0.5;exitDx=0;exitDy=0;" edge="1" parent="1" source="9gq6ShpLRroCOLwbR4I5-42" target="9gq6ShpLRroCOLwbR4I5-58">
          <mxGeometry relative="1" as="geometry" />
        </mxCell>
        <mxCell id="9gq6ShpLRroCOLwbR4I5-42" value="Si sumatoria == 4" style="rhombus;whiteSpace=wrap;html=1;" vertex="1" parent="1">
          <mxGeometry x="580" y="930" width="170" height="90" as="geometry" />
        </mxCell>
        <mxCell id="9gq6ShpLRroCOLwbR4I5-44" value="Output0 = LOW&lt;br&gt;Output1 = LOW&lt;br&gt;Output2 = LOW&lt;br&gt;Output3 = LOW" style="rounded=0;whiteSpace=wrap;html=1;" vertex="1" parent="1">
          <mxGeometry x="30" y="730" width="120" height="60" as="geometry" />
        </mxCell>
        <mxCell id="9gq6ShpLRroCOLwbR4I5-46" value="Output0 = HIGH&lt;br&gt;Output1 = LOW&lt;br&gt;Output2 = LOW&lt;br&gt;Output3 = LOW" style="rounded=0;whiteSpace=wrap;html=1;" vertex="1" parent="1">
          <mxGeometry x="155" y="800" width="120" height="60" as="geometry" />
        </mxCell>
        <mxCell id="9gq6ShpLRroCOLwbR4I5-47" value="Output0 = HIGH&lt;br&gt;Output1 = HIGH&lt;br&gt;Output2 = LOW&lt;br&gt;Output3 = LOW" style="rounded=0;whiteSpace=wrap;html=1;" vertex="1" parent="1">
          <mxGeometry x="275" y="875" width="120" height="60" as="geometry" />
        </mxCell>
        <mxCell id="9gq6ShpLRroCOLwbR4I5-48" value="Output0 = HIGH&lt;br&gt;Output1 = HIGH&lt;br&gt;Output2 = HIGH&lt;br&gt;Output3 = LOW" style="rounded=0;whiteSpace=wrap;html=1;" vertex="1" parent="1">
          <mxGeometry x="395" y="945" width="120" height="60" as="geometry" />
        </mxCell>
        <mxCell id="9gq6ShpLRroCOLwbR4I5-49" value="Output0 = HIGH&lt;br&gt;Output1 = HIGH&lt;br&gt;Output2 = HIGH&lt;br&gt;Output3 = HIGH" style="rounded=0;whiteSpace=wrap;html=1;" vertex="1" parent="1">
          <mxGeometry x="515" y="1010" width="120" height="60" as="geometry" />
        </mxCell>
        <mxCell id="9gq6ShpLRroCOLwbR4I5-61" style="edgeStyle=orthogonalEdgeStyle;rounded=0;orthogonalLoop=1;jettySize=auto;html=1;entryX=0.5;entryY=0;entryDx=0;entryDy=0;" edge="1" parent="1" source="9gq6ShpLRroCOLwbR4I5-58" target="9gq6ShpLRroCOLwbR4I5-60">
          <mxGeometry relative="1" as="geometry" />
        </mxCell>
        <mxCell id="9gq6ShpLRroCOLwbR4I5-69" style="edgeStyle=orthogonalEdgeStyle;rounded=0;orthogonalLoop=1;jettySize=auto;html=1;exitX=1;exitY=0.5;exitDx=0;exitDy=0;entryX=0.5;entryY=0;entryDx=0;entryDy=0;" edge="1" parent="1" source="9gq6ShpLRroCOLwbR4I5-58" target="9gq6ShpLRroCOLwbR4I5-68">
          <mxGeometry relative="1" as="geometry" />
        </mxCell>
        <mxCell id="9gq6ShpLRroCOLwbR4I5-58" value="Desde x = 0 hasta sumatoria" style="shape=parallelogram;perimeter=parallelogramPerimeter;whiteSpace=wrap;html=1;fixedSize=1;" vertex="1" parent="1">
          <mxGeometry x="720" y="1005" width="180" height="60" as="geometry" />
        </mxCell>
        <mxCell id="9gq6ShpLRroCOLwbR4I5-64" style="edgeStyle=orthogonalEdgeStyle;rounded=0;orthogonalLoop=1;jettySize=auto;html=1;exitX=0.5;exitY=1;exitDx=0;exitDy=0;entryX=0.5;entryY=0;entryDx=0;entryDy=0;" edge="1" parent="1" source="9gq6ShpLRroCOLwbR4I5-60" target="9gq6ShpLRroCOLwbR4I5-62">
          <mxGeometry relative="1" as="geometry" />
        </mxCell>
        <mxCell id="9gq6ShpLRroCOLwbR4I5-60" value="Led = HIGH" style="rounded=0;whiteSpace=wrap;html=1;" vertex="1" parent="1">
          <mxGeometry x="750" y="1109" width="120" height="60" as="geometry" />
        </mxCell>
        <mxCell id="9gq6ShpLRroCOLwbR4I5-65" style="edgeStyle=orthogonalEdgeStyle;rounded=0;orthogonalLoop=1;jettySize=auto;html=1;exitX=0.5;exitY=1;exitDx=0;exitDy=0;entryX=0.5;entryY=0;entryDx=0;entryDy=0;" edge="1" parent="1" source="9gq6ShpLRroCOLwbR4I5-62" target="9gq6ShpLRroCOLwbR4I5-63">
          <mxGeometry relative="1" as="geometry" />
        </mxCell>
        <mxCell id="9gq6ShpLRroCOLwbR4I5-62" value="Espera 200 ms" style="rounded=0;whiteSpace=wrap;html=1;" vertex="1" parent="1">
          <mxGeometry x="750" y="1190" width="120" height="60" as="geometry" />
        </mxCell>
        <mxCell id="9gq6ShpLRroCOLwbR4I5-66" style="edgeStyle=orthogonalEdgeStyle;rounded=0;orthogonalLoop=1;jettySize=auto;html=1;entryX=0;entryY=0.5;entryDx=0;entryDy=0;" edge="1" parent="1" source="9gq6ShpLRroCOLwbR4I5-63" target="9gq6ShpLRroCOLwbR4I5-58">
          <mxGeometry relative="1" as="geometry">
            <mxPoint x="670" y="1040" as="targetPoint" />
            <Array as="points">
              <mxPoint x="680" y="1300" />
              <mxPoint x="680" y="1035" />
            </Array>
          </mxGeometry>
        </mxCell>
        <mxCell id="9gq6ShpLRroCOLwbR4I5-63" value="Led = LOW" style="rounded=0;whiteSpace=wrap;html=1;" vertex="1" parent="1">
          <mxGeometry x="750" y="1270" width="120" height="60" as="geometry" />
        </mxCell>
        <mxCell id="9gq6ShpLRroCOLwbR4I5-67" value="Si x&amp;lt;= sumatoria&lt;br&gt;" style="text;html=1;strokeColor=none;fillColor=none;align=center;verticalAlign=middle;whiteSpace=wrap;rounded=0;" vertex="1" parent="1">
          <mxGeometry x="690" y="1270" width="40" height="20" as="geometry" />
        </mxCell>
        <mxCell id="9gq6ShpLRroCOLwbR4I5-68" value="FIN" style="ellipse;whiteSpace=wrap;html=1;aspect=fixed;" vertex="1" parent="1">
          <mxGeometry x="970" y="1109" width="80" height="80" as="geometry" />
        </mxCell>
      </root>
    </mxGraphModel>
  </diagram>
</mxfile>
